<svg xmlns="http://www.w3.org/2000/svg" viewBox="0 0 700 160" fill="none">
  <g fill="#F7F1E4">
    <!-- Four-petal clover/lotus mark -->
    <g transform="translate(85 80)">
      <path d="M 0 -10 C -22 -10, -34 -28, -30 -52 C -22 -70, -8 -74, 0 -66 C 8 -74, 22 -70, 30 -52 C 34 -28, 22 -10, 0 -10 Z"/>
      <path d="M 10 0 C 10 -22, 28 -34, 52 -30 C 70 -22, 74 -8, 66 0 C 74 8, 70 22, 52 30 C 28 34, 10 22, 10 0 Z"/>
      <path d="M 0 10 C 22 10, 34 28, 30 52 C 22 70, 8 74, 0 66 C -8 74, -22 70, -30 52 C -34 28, -22 10, 0 10 Z"/>
      <path d="M -10 0 C -10 22, -28 34, -52 30 C -70 22, -74 8, -66 0 C -74 -8, -70 -22, -52 -30 C -28 -34, -10 -22, -10 0 Z"/>
      <circle cx="0" cy="-40" r="6" fill="#2A1508"/>
      <circle cx="40" cy="0" r="6" fill="#2A1508"/>
      <circle cx="0" cy="40" r="6" fill="#2A1508"/>
      <circle cx="-40" cy="0" r="6" fill="#2A1508"/>
    </g>
  </g>
  <text x="185" y="114" font-family="'Inter Tight', sans-serif" font-size="96" font-weight="600" letter-spacing="-1" fill="#F7F1E4">progyny</text>
</svg>
